<?xml version="1.0" standalone="no"?>
<!DOCTYPE svg PUBLIC "-//W3C//DTD SVG 20010904//EN"
 "http://www.w3.org/TR/2001/REC-SVG-20010904/DTD/svg10.dtd">
<svg version="1.0" xmlns="http://www.w3.org/2000/svg"
 width="344.000000pt" height="344.000000pt" viewBox="0 0 344.000000 344.000000"
 preserveAspectRatio="xMidYMid meet">
<metadata>
Created by potrace 1.11, written by Peter Selinger 2001-2013
</metadata>
<g transform="translate(0.000000,344.000000) scale(0.100000,-0.100000)"
fill="#000000" stroke="none">
<path d="M2305 2895 c-108 -25 -183 -84 -232 -183 -39 -80 -39 -184 0 -263 33
-69 91 -129 154 -160 68 -34 206 -34 274 -1 202 99 247 367 89 520 -79 75
-189 109 -285 87z m112 -223 c70 -38 71 -146 2 -183 -35 -18 -68 -20 -98 -4
-41 20 -61 53 -61 95 0 80 85 130 157 92z"/>
<path d="M440 2792 c-6 -2 -10 -47 -10 -108 l0 -104 361 0 c346 0 363 -1 395
-20 36 -23 43 -40 129 -330 25 -85 48 -162 50 -171 5 -14 -39 -16 -452 -17
-252 0 -464 -1 -470 -1 -10 -1 -13 -29 -13 -106 l0 -105 38 0 c20 -1 246 -2
502 -3 l464 -2 14 -45 c7 -25 23 -74 34 -110 19 -59 21 -93 22 -382 l1 -318
-50 -1 c-27 0 -269 0 -537 0 l-488 0 0 -109 0 -108 378 0 c207 0 393 -1 413
-1 34 -1 36 -3 52 -54 l17 -53 177 1 c194 1 217 7 241 61 15 31 17 913 3 959
-44 143 -59 201 -53 206 4 4 46 19 94 34 48 16 92 31 97 35 11 6 -47 200 -60
200 -4 0 -50 -15 -103 -34 -53 -18 -98 -30 -100 -27 -2 3 -38 119 -79 257 -41
137 -84 268 -95 291 -30 57 -112 128 -175 149 -46 16 -97 18 -419 18 -203 1
-372 0 -378 -2z"/>
<path d="M2576 2248 c-40 -11 -97 -61 -175 -154 l-42 -51 -192 -1 c-106 0
-201 -1 -212 -1 -20 -1 -21 -7 -21 -106 l1 -105 40 -1 c216 -4 426 2 456 13
46 17 71 38 148 126 35 40 67 69 72 65 14 -14 143 -378 141 -398 -1 -20 -17
-36 -128 -130 -117 -100 -133 -117 -153 -159 -37 -75 -34 -92 104 -566 19 -68
38 -126 41 -129 10 -11 214 -7 214 4 0 11 -8 41 -63 230 -19 66 -37 129 -40
140 -8 31 -57 199 -62 212 -5 15 -5 16 132 131 130 110 163 160 170 256 4 53
0 76 -36 176 -23 63 -45 124 -50 135 -6 11 -25 62 -43 113 -37 104 -80 164
-136 187 -48 21 -119 26 -166 13z"/>
<path d="M1156 1697 c-107 -61 -103 -228 7 -280 141 -67 285 76 215 213 -42
82 -143 112 -222 67z"/>
<path d="M430 1289 l0 -107 140 0 c77 0 142 -1 144 -3 2 -2 15 -26 28 -54 l23
-50 113 0 c61 0 112 2 112 6 0 3 -29 75 -64 160 l-65 154 -215 1 -216 1 0
-108z"/>
<path d="M2372 858 c-23 -106 -42 -198 -42 -203 0 -7 39 -10 103 -10 58 1 102
5 101 10 -3 27 -110 395 -115 395 -3 0 -24 -87 -47 -192z"/>
</g>
</svg>
